<?xml version="1.0" encoding="utf-8"?>
<!-- Generator: Adobe Illustrator 29.1.0, SVG Export Plug-In . SVG Version: 9.03 Build 55587)  -->
<svg version="1.0" id="Layer_1" xmlns="http://www.w3.org/2000/svg" xmlns:xlink="http://www.w3.org/1999/xlink" x="0px" y="0px"
	 viewBox="0 0 5082.6 2293.8" style="enable-background:new 0 0 5082.6 2293.8;" xml:space="preserve">
<g>
	<path d="M3528.1,1307.6c-53.3,0-87.8,82.3-87.8,173.3c0,62,15.7,93.3,47.8,93.3c53.3,0,87.8-82.3,87.8-173.3
		C3575.9,1339,3560.2,1307.6,3528.1,1307.6z"/>
	<path d="M1581.4,729c0-32.2-10.2-61.2-35.3-61.2c-26.7,0-53.3,34.5-64.3,96.5h97.2C1580.6,753.3,1581.4,740.8,1581.4,729z"/>
	<path d="M2466.4,1495.8c-0.1,40.8,14,65.1,41.5,65.1c18,0,32.9-8.6,45.5-20.4l40-225.8C2510.3,1314.7,2466.4,1421.3,2466.4,1495.8z
		"/>
	<path d="M1128.1,628.6c0-31.4-16.5-50.2-45.5-50.2h-32.9l-22,127h27.4C1107.7,705.5,1128.1,671,1128.1,628.6z"/>
	<path d="M1119.3,1495.8c-0.1,40.8,14.1,65.1,41.5,65.1c18,0,32.9-8.6,45.5-20.4l40-225.8
		C1163.2,1314.7,1119.3,1421.3,1119.3,1495.8z"/>
	<path d="M1119.4,844.3c0-34.5-22.7-57.2-63.5-57.2h-43.1l-23.5,133.3h50.2C1094.3,920.3,1119.4,889,1119.4,844.3z"/>
	<path d="M2005.5,679.7c-79.2,0-127,91-127,173.3c0,43.8,18.8,65,49.4,65c12.5,0,25.1-4.7,37.6-12.5L2005.5,679.7z"/>
	<path d="M208,175.9v1938.2h4707.6V175.9H208z M3381.8,812.8l35.3-202.3H3559v0.1l-37.6,210.2c-4.7,25.1-7.1,42.3-7.1,56.5
		c0,30.6,16.5,46.3,40.8,46.3c25.9,0,48.6-18.8,55.7-59.6l44.7-253.3h104.3L3719,841.9c-21.2,122.3-92.5,172.5-198.4,172.5
		c-92.5,0-145.9-49.4-145.9-135.7C3374.7,859.1,3377.1,841.1,3381.8,812.8z M3175.5,460c101.2,0,165.5,51.8,165.5,128.6
		c0,61.2-40.8,109-97.2,131c54.9,14.9,89.4,52.5,89.4,105.9c0,98.8-95.7,177.2-221.9,177.2h-52.5l14.1-82.3h22
		c58,0,93.3-47.8,93.3-94.9c0-37.6-25.1-63.5-65.9-63.5H3101l14.1-82.3h18.8c39.2,0,72.1-34.5,72.1-80.8c0-32.9-18-54.1-47.1-54.1
		c-32.2,0-59.6,29-66.7,70.6l-68.2,387.4h-141.9l65.1-370.1C2968.5,514.1,3054.8,460,3175.5,460z M2829.7,433.4
		c32.2,0,54.1,22,54.1,51.8c0,43.9-36.9,79.2-76.8,79.2c-33-0.1-54.9-22-54.9-52.6C2752.1,468.7,2787.4,433.4,2829.7,433.4z
		 M2680.7,433.4c32.2,0,53.3,22,53.3,53.3c0,40-33.7,77.6-76.8,77.6c-32.9,0-54.1-21.9-54.1-53.3
		C2603.1,467.9,2639.2,433.4,2680.7,433.4z M2513.7,812.9l35.3-202.3h141.9l0,0l-37.6,210.2c-4.7,25.1-7.1,42.3-7.1,56.5
		c0,30.6,16.5,46.3,40.8,46.3c25.9,0,48.6-18.8,55.7-59.6l44.7-253.3h104.3L2850.9,842c-21.2,122.3-92.5,172.5-198.4,172.5
		c-92.5,0-145.9-49.4-145.9-135.7C2506.6,859.2,2509,841.2,2513.7,812.9z M2356.9,610.6l-3.9,61.2c43.9-49.4,97.2-65.1,146.6-65.9
		l-22,125.5c-11.8-2.4-22.7-3.9-37.6-3.9c-34.5,0-72.1,9.4-101.2,30.6l-43.1,244.7h-141.9l69-392.2H2356.9z M1879.4,1001.1
		c-80,0-145.9-43.1-145.9-135.7c0-102.7,80.8-254.9,275.2-254.9H2160l-69,391.3c-22.7,131.1-127,169.5-228.2,169.5
		c-62,0-106.6-12.5-136.4-32.2l14.9-85.5c30.6,19.6,69,31.4,110.6,31.4c43.1,0,85.5-18,94.1-65.9l5.5-32.9
		C1932.7,995.6,1909.9,1001.1,1879.4,1001.1z M1560.2,598.8c103.5,0,154.5,68.2,154.5,160.8c0,26.7-3.1,50.2-8.6,72.9h-230.7v1.6
		c0,60.4,40,83.1,84.7,83.1c40,0,74.5-12.5,120.8-36.9l-16.5,92.5c-49.4,28.2-98,41.6-156.8,41.6c-106.6,0-182.7-65-182.7-175.6
		C1324.9,730.6,1411.9,598.8,1560.2,598.8z M895.2,496.1h242.3c122.3,0,158.4,49.4,158.4,111.4c0,49.4-30.6,94.1-89.4,122.3
		c47.1,19.6,83.9,59.6,83.9,111.4c0,90.2-71.4,161.5-211.7,161.5H805.8L895.2,496.1z M778.1,1296l65.9,32
		c61.2,29.8,101.2,65.1,101.2,132.5c0,114.5-103.5,185.9-231.3,185.9c-69.9,0-119.3-18.9-169.5-54.9l20.4-115.3
		c60.4,40,109,60.4,160.8,60.4c42.3,0,59.6-14.9,59.6-33.7c0-16.5-10.2-27.4-36.1-40l-64.3-31.4c-62.7-30.6-100.4-67.5-100.4-132.5
		c0-97.2,91-177.2,232.9-177.2c65.1,0,110.6,10.2,158.4,36.9l-17.3,101.2c-48.6-25.1-97.2-37.6-149-37.6c-40,0-68.2,14.9-68.2,34.5
		C741.2,1270.1,750.6,1282.7,778.1,1296z M1225.9,1636.9l-6.3-36.1c-32.9,29.8-72.1,46.3-118.4,46.3c-72.9,0-127-50.2-127-137.2
		c0-101.9,82.3-265.1,279.2-265.1h147.4l-69.8,392.1H1225.9z M1394.5,1637l90.2-509.8l149-37.6l-97.2,547.4H1394.5z M1967.7,1476.3
		c-21.2,122.3-92.5,172.5-198.4,172.5c-92.5,0-145.9-49.4-145.9-135.7c0-19.6,2.4-37.6,7.1-65.9l35.3-202.3h141.9l-37.6,210.2
		c-4.7,25.1-7.1,42.3-7.1,56.5c0,30.6,16.5,46.3,40.8,46.3c25.9,0,48.6-18.8,55.7-59.6l44.7-253.3h104.3L1967.7,1476.3z
		 M2272,1620.3c-31.4,17.3-69,27.4-113.7,27.4c-105.1,0.2-153.7-55.5-135.7-158.2l57.2-324.7l149-36.9l-20.4,116.8h129.4l-14.9,82.3
		h-129.4l-27.4,155.3c-10.2,58.8,19.6,81.6,59.6,81.6c21.2,0,37.6-5.5,58.8-16.5L2272,1620.3z M2678.1,1636.9H2573l-6.3-36.1
		c-32.9,29.8-72.1,46.3-118.4,46.3c-72.9,0-127-50.2-127-137.2c0-101.9,82.3-265.1,279.2-265.1h147.4L2678.1,1636.9z M2968.2,1563.9
		c21.2,0,37.6-5.5,58.8-16.5l-12.5,72.9c-31.4,17.3-69,27.4-113.7,27.4c-105.1,0.2-153.7-55.5-135.7-158.2l57.2-324.7l149-36.9
		l-20.4,116.8h129.4l-14.9,82.3H2936l-27.4,155.3C2898.4,1541.1,2928.2,1563.9,2968.2,1563.9z M3209.7,1636.9h-141.9l64.3-365.4
		l149-36.9L3209.7,1636.9z M3214.4,1211.1c-44.7,0-73.7-28.2-73.7-64.3c0-47.8,46.3-91,96.5-91c44.7,0,73.7,28.2,73.7,64.3
		C3310.9,1167.9,3264.6,1211.1,3214.4,1211.1z M3476.4,1648.7c-118.5,0-185.1-71.4-185.1-175.7c0-128.6,101.2-240,248.6-240
		c118.4,0,185.1,71.4,185.1,175.7C3725,1537.3,3623.8,1648.7,3476.4,1648.7z M4163.3,1391.5l-43.1,245.4h-141.9l42.3-240.7
		c1.6-11,3.1-18.8,3.1-32.2c0-14.1-7.1-25.1-23.5-25.1c-21.2,0-50.2,15.7-76.8,43.9l-44.7,254.1h-141.9l68.9-392h134.1l-3.1,58
		c51.8-48.6,101.2-70.6,152.9-70.6c49.4,0,82.3,32.2,82.3,84.7C4171.9,1340.5,4168.8,1360.9,4163.3,1391.5z M4133.8,1002.6h-141.9
		l42.3-240.7c1.6-11,3.1-18.8,3.1-32.2c0-14.1-7.1-25.1-23.5-25.1c-21.2,0-50.2,15.7-76.8,43.9l-44.7,254.1h-141.9l68.9-392h134.1
		l-3.1,58C4002,620,4051.5,598,4103.2,598c49.4,0,82.3,32.2,82.3,84.7c0,23.5-3.1,43.9-8.6,74.5L4133.8,1002.6z M4484.8,1332
		c-31.4-15.7-51-23.5-81.6-23.5c-29.8,0-50.2,11-50.2,29c0,12.5,9.4,26.7,47.8,49.4c58,33.7,73.7,69.8,73.7,109
		c0,80-69,150.6-177.2,150.6c-47.8-0.1-89.3-13.5-117.6-29.9l15.7-88.6c39.2,22.7,74.5,35.3,104.3,35.3c27.4,0,40-11,40-28.2
		c0-19.6-18.8-34.5-57.2-58.8c-34.5-22-69.8-47.8-69.8-102.7c0-80,78.4-138.8,187.4-138.8c40.8,0,71.4,8.6,98,20.4L4484.8,1332z
		 M4565.9,1001.8c-22.8,131.1-127.1,169.5-228.2,169.5c-62,0-106.6-12.5-136.4-32.2l14.9-85.5c30.6,19.6,69,31.4,110.6,31.4
		c43.1,0,85.5-18,94.1-65.9l5.5-32.9c-18.8,9.4-41.6,14.9-72.1,14.9c-80,0-145.9-43.1-145.9-135.7c0-102.7,80.8-254.9,275.2-254.9
		h151.3L4565.9,1001.8z"/>
	<path d="M4353.4,853c0,43.8,18.8,65,49.4,65c12.5,0,25.1-4.7,37.6-12.5l40-225.8C4401.2,679.7,4353.4,770.7,4353.4,853z"/>
</g>
</svg>
