<?xml version="1.0" encoding="utf-8"?>
<!-- Generator: Adobe Illustrator 29.1.0, SVG Export Plug-In . SVG Version: 9.03 Build 55587)  -->
<svg version="1.0" id="Layer_1" xmlns="http://www.w3.org/2000/svg" xmlns:xlink="http://www.w3.org/1999/xlink" x="0px" y="0px"
	 viewBox="0 0 4160 1875.9" style="enable-background:new 0 0 4160 1875.9;" xml:space="preserve">
<g>
	<path d="M369.2,280.1h242.3c122.3,0,158.4,49.4,158.4,111.4c0,49.4-30.6,94.1-89.4,122.3c47.1,19.6,83.9,59.6,83.9,111.4
		c0,90.2-71.4,161.5-211.7,161.5H279.8L369.2,280.1z M593.4,628.3c0-34.5-22.7-57.2-63.5-57.2h-43.1l-23.5,133.3h50.2
		C568.3,704.3,593.4,673,593.4,628.3z M602.1,412.6c0-31.4-16.5-50.2-45.5-50.2h-32.9l-22,127h27.4
		C581.7,489.5,602.1,455,602.1,412.6z"/>
	<path d="M798.9,622.8c0-108.2,87-240,235.3-240c103.5,0,154.5,68.2,154.5,160.8c0,26.7-3.1,50.2-8.6,72.9H949.4v1.6
		c0,60.4,40,83.1,84.7,83.1c40,0,74.5-12.5,120.8-36.9l-16.5,92.5c-49.4,28.2-98,41.6-156.8,41.6C875,798.4,798.9,733.4,798.9,622.8
		z M1053,548.3c1.6-11,2.4-23.5,2.4-35.3c0-32.2-10.2-61.2-35.3-61.2c-26.7,0-53.3,34.5-64.3,96.5H1053z"/>
	<path d="M1336.8,955.3c-62,0-106.6-12.5-136.4-32.2l14.9-85.5c30.6,19.6,69,31.4,110.6,31.4c43.1,0,85.5-18,94.1-65.9l5.5-32.9
		c-18.8,9.4-41.6,14.9-72.1,14.9c-80,0-145.9-43.1-145.9-135.7c0-102.7,80.8-254.9,275.2-254.9H1634l-69,391.3
		C1542.3,916.9,1438,955.3,1336.8,955.3z M1401.9,702c12.5,0,25.1-4.7,37.6-12.5l40-225.8c-79.2,0-127,91-127,173.3
		C1352.5,680.8,1371.3,702,1401.9,702z"/>
	<path d="M1696.8,394.6h134.1l-3.9,61.2c43.9-49.4,97.2-65.1,146.6-65.9l-22,125.5c-11.8-2.4-22.7-3.9-37.6-3.9
		c-34.5,0-72.1,9.4-101.2,30.6l-43.1,244.7h-141.9L1696.8,394.6z"/>
	<path d="M2164.9,394.6l-37.6,210.2c-4.7,25.1-7.1,42.3-7.1,56.5c0,30.6,16.5,46.3,40.8,46.3c25.9,0,48.6-18.8,55.7-59.6l44.7-253.3
		h104.3l-40.8,231.3c-21.2,122.3-92.5,172.5-198.4,172.5c-92.5,0-145.9-49.4-145.9-135.7c0-19.6,2.4-37.6,7.1-65.9l35.3-202.3
		H2164.9z M2077.1,295c0-43.1,36.1-77.6,77.6-77.6c32.2,0,53.3,22,53.3,53.3c0,40-33.7,77.6-76.8,77.6
		C2098.3,348.3,2077.1,326.4,2077.1,295z M2226.1,295.8c0-43.1,35.3-78.4,77.6-78.4c32.2,0,54.1,22,54.1,51.8
		c0,43.9-36.9,79.2-76.8,79.2C2248,348.3,2226.1,326.4,2226.1,295.8z"/>
	<path d="M2649.5,244c101.2,0,165.5,51.8,165.5,128.6c0,61.2-40.8,109-97.2,131c54.9,14.9,89.4,52.5,89.4,105.9
		c0,98.8-95.7,177.2-221.9,177.2h-52.5l14.1-82.3h22c58,0,93.3-47.8,93.3-94.9c0-37.6-25.1-63.5-65.9-63.5H2575l14.1-82.3h18.8
		c39.2,0,72.1-34.5,72.1-80.8c0-32.9-18-54.1-47.1-54.1c-32.2,0-59.6,29-66.7,70.6l-68.2,387.4h-141.9l65.1-370.1
		C2442.5,298.1,2528.8,244,2649.5,244z"/>
	<path d="M3033,394.6l-37.6,210.2c-4.7,25.1-7.1,42.3-7.1,56.5c0,30.6,16.5,46.3,40.8,46.3c25.9,0,48.6-18.8,55.7-59.6l44.7-253.3
		h104.3L3193,625.9c-21.2,122.3-92.5,172.5-198.4,172.5c-92.5,0-145.9-49.4-145.9-135.7c0-19.6,2.4-37.6,7.1-65.9l35.3-202.3H3033z"
		/>
	<path d="M3293.3,394.6h134.1l-3.1,58C3476,404,3525.5,382,3577.2,382c49.4,0,82.3,32.2,82.3,84.7c0,23.5-3.1,43.9-8.6,74.5
		l-43.1,245.4h-141.9l42.3-240.7c1.6-11,3.1-18.8,3.1-32.2c0-14.1-7.1-25.1-23.5-25.1c-21.2,0-50.2,15.7-76.8,43.9l-44.7,254.1
		h-141.9L3293.3,394.6z"/>
	<path d="M3811.7,955.3c-62,0-106.6-12.5-136.4-32.2l14.9-85.5c30.6,19.6,69,31.4,110.6,31.4c43.1,0,85.5-18,94.1-65.9l5.5-32.9
		c-18.8,9.4-41.6,14.9-72.1,14.9c-80,0-145.9-43.1-145.9-135.7c0-102.7,80.8-254.9,275.2-254.9h151.3l-69,391.3
		C4017.1,916.9,3912.8,955.3,3811.7,955.3z M3876.8,702c12.5,0,25.1-4.7,37.6-12.5l40-225.8c-79.2,0-127,91-127,173.3
		C3827.4,680.8,3846.2,702,3876.8,702z"/>
</g>
<g>
	<path d="M18.4,1375.5l20.4-115.3c60.4,40,109,60.4,160.8,60.4c42.3,0,59.6-14.9,59.6-33.7c0-16.5-10.2-27.4-36.1-40l-64.3-31.4
		C96.1,1184.9,58.4,1148,58.4,1083c0-97.2,91-177.2,232.9-177.2c65.1,0,110.6,10.2,158.4,36.9l-17.3,101.2
		c-48.6-25.1-97.2-37.6-149-37.6c-40,0-68.2,14.9-68.2,34.5c0,13.3,9.4,25.9,36.9,39.2L318,1112c61.2,29.8,101.2,65.1,101.2,132.5
		c0,114.5-103.5,185.9-231.3,185.9C118,1430.4,68.6,1411.5,18.4,1375.5z"/>
	<path d="M448.2,1293.9c0-101.9,82.3-265.1,279.2-265.1h147.4L805,1420.9H699.9l-6.3-36.1c-32.9,29.8-72.1,46.3-118.4,46.3
		C502.3,1431.1,448.2,1380.9,448.2,1293.9z M634.8,1344.9c18,0,32.9-8.6,45.5-20.4l40-225.8c-83.1,0-127,106.6-127,181.1
		C593.2,1320.6,607.4,1344.9,634.8,1344.9z"/>
	<path d="M958.7,911.2l149-37.6l-97.2,547.4H868.5L958.7,911.2z"/>
	<path d="M1281.7,1028.9l-37.6,210.2c-4.7,25.1-7.1,42.3-7.1,56.5c0,30.6,16.5,46.3,40.8,46.3c25.9,0,48.6-18.8,55.7-59.6
		l44.7-253.3h104.3l-40.8,231.3c-21.2,122.3-92.5,172.5-198.4,172.5c-92.5,0-145.9-49.4-145.9-135.7c0-19.6,2.4-37.6,7.1-65.9
		l35.3-202.3H1281.7z"/>
	<path d="M1496.6,1273.5l57.2-324.7l149-36.9l-20.4,116.8h129.4l-14.9,82.3h-129.4l-27.4,155.3c-10.2,58.8,19.6,81.6,59.6,81.6
		c21.2,0,37.6-5.5,58.8-16.5l-12.5,72.9c-31.4,17.3-69,27.4-113.7,27.4C1527.2,1431.9,1478.6,1376.2,1496.6,1273.5z"/>
	<path d="M1810.3,1293.9c0-101.9,82.3-265.1,279.2-265.1h147.4l-69.8,392.1H2062l-6.3-36.1c-32.9,29.8-72.1,46.3-118.4,46.3
		C1864.4,1431.1,1810.3,1380.9,1810.3,1293.9z M1996.9,1344.9c18,0,32.9-8.6,45.5-20.4l40-225.8c-83.1,0-127,106.6-127,181.1
		C1955.3,1320.6,1969.4,1344.9,1996.9,1344.9z"/>
	<path d="M2254.1,1273.5l57.2-324.7l149-36.9l-20.4,116.8h129.4l-14.9,82.3h-129.4l-27.4,155.3c-10.2,58.8,19.6,81.6,59.6,81.6
		c21.2,0,37.6-5.5,58.8-16.5l-12.5,72.9c-31.4,17.3-69,27.4-113.7,27.4C2284.7,1431.9,2236.1,1376.2,2254.1,1273.5z"/>
	<path d="M2621.1,1055.5l149-36.9l-71.4,402.3h-141.9L2621.1,1055.5z M2629.7,930.8c0-47.8,46.3-91,96.5-91
		c44.7,0,73.7,28.2,73.7,64.3c0,47.8-46.3,91-96.5,91C2658.7,995.1,2629.7,966.9,2629.7,930.8z"/>
	<path d="M2780.3,1257c0-128.6,101.2-240,248.6-240c118.4,0,185.1,71.4,185.1,175.7c0,128.6-101.2,240-248.6,240
		C2846.9,1432.7,2780.3,1361.3,2780.3,1257z M3064.9,1184.9c0-61.9-15.7-93.3-47.8-93.3c-53.3,0-87.8,82.3-87.8,173.3
		c0,62,15.7,93.3,47.8,93.3C3030.4,1358.2,3064.9,1275.9,3064.9,1184.9z"/>
	<path d="M3294.7,1028.9h134.1l-3.1,58c51.8-48.6,101.2-70.6,152.9-70.6c49.4,0,82.3,32.2,82.3,84.7c0,23.5-3.1,43.9-8.6,74.5
		l-43.1,245.4h-141.9l42.3-240.7c1.6-11,3.1-18.8,3.1-32.2c0-14.1-7.1-25.1-23.5-25.1c-21.2,0-50.2,15.7-76.8,43.9l-44.7,254.1
		h-141.9L3294.7,1028.9z"/>
	<path d="M3668.7,1400.6l15.7-88.6c39.2,22.7,74.5,35.3,104.3,35.3c27.4,0,40-11,40-28.2c0-19.6-18.8-34.5-57.2-58.8
		c-34.5-22-69.8-47.8-69.8-102.7c0-80,78.4-138.8,187.4-138.8c40.8,0,71.4,8.6,98,20.4l-13.3,76.8c-31.4-15.7-51-23.5-81.6-23.5
		c-29.8,0-50.2,11-50.2,29c0,12.5,9.4,26.7,47.8,49.4c58,33.7,73.7,69.8,73.7,109c0,80-69,150.6-177.2,150.6
		C3738.5,1430.4,3697,1417,3668.7,1400.6z"/>
</g>
</svg>
