<?xml version="1.0" encoding="utf-8"?>
<!-- Generator: Adobe Illustrator 29.1.0, SVG Export Plug-In . SVG Version: 9.03 Build 55587)  -->
<svg version="1.0" id="Layer_1" xmlns="http://www.w3.org/2000/svg" xmlns:xlink="http://www.w3.org/1999/xlink" x="0px" y="0px"
	 viewBox="0 0 3784.9 2182.5" style="enable-background:new 0 0 3784.9 2182.5;" xml:space="preserve">
<g>
	<path d="M383.8,1068.9c0-111.6,105.2-167.3,171.1-214.2c63.4-44.4,111.6-98.9,143.3-150.9l-15.2-8.9
		c-50.7,65.9-116.6,125.5-176.2,125.5c-44.4,0-72.3-29.2-72.3-73.5c0-96.3,130.6-148.3,130.6-199c0-11.4-7.6-21.6-21.6-21.6
		c-24.1,0-52,17.7-93.8,69.7l-22.8-12.7c58.3-116.6,128-230.7,240.9-230.7c73.5,0,121.7,50.7,121.7,110.3
		c0,69.7-64.7,147.1-64.7,270c0,81.1,31.7,133.1,31.7,205.4c0,124.2-87.5,262.4-229.5,262.4C453.6,1200.8,383.8,1157.7,383.8,1068.9
		z M691.9,778.6c-59.6,77.3-168.6,125.5-168.6,194c0,30.4,20.3,57,59.6,57C697,1029.6,707.1,869.9,691.9,778.6z M723.6,559.3
		c0-13.9-8.9-25.4-26.6-25.4c-55.8,0-157.2,60.9-157.2,129.3c0,29.2,16.5,45.6,45.6,45.6C657.7,708.9,723.6,597.3,723.6,559.3z"/>
	<path d="M817.4,882.6c0-86.2,86.2-130.6,86.2-197.8c0-29.2-16.5-50.7-41.8-50.7c-17.7,0-36.8,11.4-48.2,22.8l-19-13.9
		c59.6-87.5,76.1-177.5,58.3-278.9c7.6-3.8,19-7.6,29.2-7.6c35.5,0,65.9,35.5,65.9,102.7c0,40.6-13.9,100.2-30.4,191.4l13.9,2.5
		c41.8-192.7,78.6-299.2,139.5-299.2c27.9,0,49.4,15.2,63.4,39.3c-35.5,74.8-59.6,166.1-59.6,251l-16.5,6.3
		c-16.5-31.7-33-39.3-48.2-39.3c-49.4,0-83.7,76.1-83.7,120.4c0,26.6,12.7,38,24.1,38c8.9,0,17.7-6.3,25.4-17.7l16.5,10.1
		c-21.6,69.7-31.7,140.7-24.1,210.4c-13.9,6.3-34.2,11.4-54.5,11.4C849.1,984,817.4,934.5,817.4,882.6z"/>
	<path d="M1147,867.3c0-67.2,40.6-111.6,40.6-168.6c0-31.7-12.7-55.8-35.5-55.8c-11.4,0-21.6,7.6-27.9,13.9l-17.7-13.9
		c97.6-155.9,96.3-290.3,215.5-290.3c74.8,0,124.2,55.8,124.2,138.2c0,116.6-87.5,192.7-234.5,230.7c8.9,49.4,41.8,76.1,88.7,76.1
		c52,0,98.9-35.5,125.5-74.8l20.3,10.1c-24.1,140.7-97.6,252.3-190.2,252.3C1186.3,985.2,1147,935.8,1147,867.3z M1335.9,593.5
		c0-29.2-20.3-50.7-48.2-50.7c-41.8,0-78.6,60.9-78.6,148.3v5.1C1281.4,675.9,1335.9,640.4,1335.9,593.5z"/>
	<path d="M1489.3,867.3c0-67.2,40.6-111.6,40.6-168.6c0-31.7-12.7-55.8-35.5-55.8c-11.4,0-21.6,7.6-27.9,13.9l-17.7-13.9
		c97.6-155.9,96.3-290.3,215.5-290.3c74.8,0,124.2,55.8,124.2,138.2c0,116.6-87.5,192.7-234.5,230.7c8.9,49.4,41.8,76.1,88.7,76.1
		c52,0,98.9-35.5,125.5-74.8l20.3,10.1c-24.1,140.7-97.6,252.3-190.2,252.3C1528.6,985.2,1489.3,935.8,1489.3,867.3z M1678.2,593.5
		c0-29.2-20.3-50.7-48.2-50.7c-41.8,0-78.6,60.9-78.6,148.3v5.1C1623.7,675.9,1678.2,640.4,1678.2,593.5z"/>
	<path d="M1822.7,882.6c-3.8-98.9,73.5-162.3,73.5-232c0-35.5-19-53.2-48.2-53.2c-11.4,0-21.6,2.5-35.5,8.9l-8.9-77.3
		c48.2-19,68.5-49.4,68.5-88.7c0-38-17.7-82.4-43.1-115.4c67.2-44.4,109-86.2,153.4-148.3l17.7,5.1c19,155.9-25.4,257.3-128,343.6
		l6.3,11.4c78.6-48.2,133.1-100.2,188.9-180l30.4,8.9c-25.4,73.5-41.8,166.1-36.8,249.7l-13.9,12.7c-11.4-11.4-25.4-16.5-43.1-16.5
		c-48.2,0-95.1,63.4-95.1,114.1c0,25.4,13.9,39.3,34.2,39.3c21.6,0,44.4-10.1,62.1-31.7l15.2,10.1c-26.6,73.5-36.8,149.6-21.6,224.4
		c-13.9,8.9-40.6,16.5-69.7,16.5C1859.5,984,1825.2,937.1,1822.7,882.6z"/>
	<path d="M2110.5,880c0-83.7,79.9-135.6,79.9-210.4c0-26.6-13.9-39.3-31.7-39.3c-20.3,0-38,11.4-52,26.6l-19-13.9
		c59.6-87.5,76.1-177.5,58.3-278.9c13.9-5.1,29.2-7.6,43.1-7.6c53.2,0,92.5,45.6,92.5,106.5c0,81.1-72.3,138.2-72.3,230.7
		c0,39.3,12.7,57,30.4,57c15.2,0,27.9-15.2,36.8-33l19,11.4c-40.6,74.8-60.9,158.5-48.2,238.3c-11.4,8.9-29.2,16.5-49.4,16.5
		C2148.5,984,2110.5,938.3,2110.5,880z M2197.9,290.5c0-46.9-79.9-46.9-79.9-110.3c0-38,35.5-67.2,79.9-67.2
		c50.7,0,86.2,39.3,86.2,88.7c0,44.4-26.6,84.9-76.1,128l-19-11.4C2194.1,308.3,2197.9,299.4,2197.9,290.5z"/>
	<path d="M2328.5,882.6c0-86.2,86.2-130.6,86.2-197.8c0-29.2-16.5-50.7-41.8-50.7c-17.7,0-36.8,11.4-48.2,22.8l-19-13.9
		c59.6-87.5,76.1-177.5,58.3-278.9c8.9-3.8,22.8-7.6,34.2-7.6c40.6,0,72.3,48.2,72.3,112.8c0,49.4-19,96.3-40.6,181.3l13.9,5.1
		c46.9-148.3,104-301.7,211.7-301.7c53.2,0,83.7,38,83.7,91.3c0,139.5-130.6,195.2-130.6,267.5c0,22.8,15.2,38,39.3,38
		c30.4,0,58.3-20.3,73.5-38l16.5,15.2c-35.5,55.8-64.7,157.2-38,247.2c-12.7,6.3-27.9,8.9-40.6,8.9c-53.2,0-95.1-45.6-95.1-152.1
		c0-111.6,48.2-187.6,48.2-232c0-22.8-12.7-38-34.2-38c-54.5,0-139.5,107.8-139.5,167.3c0,16.5,7.6,31.7,22.8,31.7
		c17.7,0,35.5-19,49.4-39.3l16.5,12.7c-45.6,78.6-65.9,159.7-54.5,238.3c-13.9,6.3-31.7,11.4-49.4,11.4
		C2361.5,984,2328.5,934.5,2328.5,882.6z"/>
	<path d="M2720.3,1068.9c0-111.6,105.2-167.3,171.1-214.2c63.4-44.4,111.6-98.9,143.3-150.9l-15.2-8.9
		c-50.7,65.9-116.6,125.5-176.2,125.5c-44.4,0-72.3-29.2-72.3-73.5c0-96.3,130.6-148.3,130.6-199c0-11.4-7.6-21.6-21.6-21.6
		c-24.1,0-52,17.7-93.8,69.7l-22.8-12.7c58.3-116.6,128-230.7,240.9-230.7c73.5,0,121.7,50.7,121.7,110.3
		c0,69.7-64.7,147.1-64.7,270c0,81.1,31.7,133.1,31.7,205.4c0,124.2-87.5,262.4-229.5,262.4
		C2790,1200.8,2720.3,1157.7,2720.3,1068.9z M3028.3,778.6c-59.6,77.3-168.6,125.5-168.6,194c0,30.4,20.3,57,59.6,57
		C3033.4,1029.6,3043.5,869.9,3028.3,778.6z M3060,559.3c0-13.9-8.9-25.4-26.6-25.4c-55.8,0-157.2,60.9-157.2,129.3
		c0,29.2,16.5,45.6,45.6,45.6C2994.1,708.9,3060,597.3,3060,559.3z"/>
	<path d="M3133.5,910.4c21.6-50.7,30.4-119.2,24.1-173.7l20.3-12.7c26.6,46.9,64.7,77.3,112.8,77.3c40.6,0,62.1-20.3,62.1-45.6
		c0-77.3-204.1-93.8-204.1-248.5c0-87.5,67.2-154.7,158.5-154.7c48.2,0,97.6,20.3,133.1,67.2c-24.1,49.4-41.8,114.1-44.4,169.9
		l-19,8.9c-20.3-35.5-46.9-52-81.1-52c-35.5,0-60.9,16.5-60.9,39.3c0,68.5,187.6,81.1,187.6,237.1c0,95.1-69.7,162.3-152.1,162.3
		C3213.4,985.2,3162.7,951,3133.5,910.4z"/>
	<path d="M1358.9,1897.6c24.1-48.2,35.5-117.9,31.7-174.9l19-7.6c11.4,35.5,27.9,50.7,48.2,50.7c31.7,0,55.8-29.2,55.8-76.1
		c0-90-36.8-144.5-93.8-144.5c-10.1,0-17.7,1.3-27.9,5.1l-5.1-72.3c67.2-15.2,90-38,90-79.9c0-52-54.5-96.3-54.5-161
		c0-98.9,73.5-159.7,158.5-159.7c53.2,0,93.8,21.6,129.3,55.8c-21.6,46.9-30.4,120.4-19,172.4l-17.7,11.4
		c-21.6-29.2-45.6-43.1-79.9-43.1c-34.2,0-60.9,34.2-60.9,92.5c0,60.9-21.6,96.3-77.3,119.2l2.5,10.1
		c82.4-22.8,138.2-50.7,196.5-109l17.7,10.1c-16.5,57-30.4,131.8-29.2,199l-13.9,10.1c-10.1-19-26.6-30.4-45.6-30.4
		c-24.1,0-45.6,19-45.6,52c0,67.2,52,105.2,52,206.6c0,91.3-54.5,142-110.3,142C1424.8,1976.2,1385.5,1940.7,1358.9,1897.6z"/>
	<path d="M1711.3,1774.7c0-86.2,86.2-130.6,86.2-197.8c0-29.2-16.5-50.7-41.8-50.7c-17.7,0-36.8,11.4-48.2,22.8l-19-13.9
		c59.6-87.5,76.1-177.5,58.3-278.9c7.6-3.8,19-7.6,29.2-7.6c35.5,0,65.9,35.5,65.9,102.7c0,40.6-13.9,100.2-30.4,191.4l13.9,2.5
		c41.8-192.7,78.6-299.2,139.5-299.2c27.9,0,49.4,15.2,63.4,39.3c-35.5,74.8-59.6,166.1-59.6,251l-16.5,6.3
		c-16.5-31.7-33-39.3-48.2-39.3c-49.4,0-83.7,76.1-83.7,120.4c0,26.6,12.7,38,24.1,38c8.9,0,17.7-6.3,25.4-17.7l16.5,10.1
		c-21.6,69.7-31.7,140.7-24.1,210.4c-13.9,6.3-34.2,11.4-54.5,11.4C1743,1876.1,1711.3,1826.6,1711.3,1774.7z"/>
	<path d="M2030.8,1772.1c0-83.7,79.9-135.6,79.9-210.4c0-26.6-13.9-39.3-31.7-39.3c-20.3,0-38,11.4-52,26.6l-19-13.9
		c59.6-87.5,76.1-177.5,58.3-278.9c13.9-5.1,29.2-7.6,43.1-7.6c53.2,0,92.5,45.6,92.5,106.5c0,81.1-72.3,138.2-72.3,230.7
		c0,39.3,12.7,57,30.4,57c15.2,0,27.9-15.2,36.8-33l19,11.4c-40.6,74.8-60.9,158.5-48.2,238.3c-11.4,8.9-29.2,16.5-49.4,16.5
		C2068.8,1876.1,2030.8,1830.4,2030.8,1772.1z M2118.2,1182.6c0-46.9-79.9-46.9-79.9-110.3c0-38,35.5-67.2,79.9-67.2
		c50.7,0,86.2,39.3,86.2,88.7c0,44.4-26.6,84.9-76.1,128l-19-11.4C2114.4,1200.4,2118.2,1191.5,2118.2,1182.6z"/>
	<path d="M2259,1759.4c0-67.2,40.6-111.6,40.6-168.6c0-31.7-12.7-55.8-35.5-55.8c-11.4,0-21.6,7.6-27.9,13.9l-17.7-13.9
		c97.6-155.9,96.3-290.3,215.5-290.3c74.8,0,124.2,55.8,124.2,138.2c0,116.6-87.5,192.7-234.5,230.7c8.9,49.4,41.8,76.1,88.7,76.1
		c52,0,98.9-35.5,125.5-74.8l20.3,10.1c-24.1,140.7-97.6,252.3-190.2,252.3C2298.3,1877.3,2259,1827.9,2259,1759.4z M2447.8,1485.6
		c0-29.2-20.3-50.7-48.2-50.7c-41.8,0-78.6,60.9-78.6,148.3v5.1C2393.3,1568,2447.8,1532.5,2447.8,1485.6z"/>
	<path d="M2591.1,1774.7c0-86.2,86.2-130.6,86.2-197.8c0-29.2-16.5-50.7-41.8-50.7c-17.7,0-36.8,11.4-48.2,22.8l-19-13.9
		c59.6-87.5,76.1-177.5,58.3-278.9c8.9-3.8,22.8-7.6,34.2-7.6c40.6,0,72.3,48.2,72.3,112.8c0,49.4-19,96.3-40.6,181.3l13.9,5.1
		c46.9-148.3,104-301.7,211.7-301.7c53.2,0,83.7,38,83.7,91.3c0,139.5-130.6,195.2-130.6,267.5c0,22.8,15.2,38,39.3,38
		c30.4,0,58.3-20.3,73.5-38l16.5,15.2c-35.5,55.8-64.7,157.2-38,247.2c-12.7,6.3-27.9,8.9-40.6,8.9c-53.2,0-95.1-45.6-95.1-152.1
		c0-111.6,48.2-187.6,48.2-232c0-22.8-12.7-38-34.2-38c-54.5,0-139.5,107.8-139.5,167.3c0,16.5,7.6,31.7,22.8,31.7
		c17.7,0,35.5-19,49.4-39.3l16.5,12.7c-45.6,78.6-65.9,159.7-54.5,238.3c-13.9,6.3-31.7,11.4-49.4,11.4
		C2624.1,1876.1,2591.1,1826.6,2591.1,1774.7z"/>
	<path d="M3046.2,1767.1c0-82.4,43.1-129.3,43.1-183.8c0-33-16.5-48.2-34.2-48.2c-11.4,0-21.6,6.3-33,15.2l-13.9-16.5
		c90-163.5,117.9-262.4,200.3-262.4c54.5,0,93.8,38,121.7,133.1l12.7-5.1c-13.9-84.9-45.6-140.7-95.1-176.2
		c43.1-43.1,78.6-96.3,107.8-150.9l16.5-5.1c34.2,54.5,50.7,105.2,50.7,163.5c0,169.9-142,273.8-142,371.4
		c0,34.2,17.7,54.5,41.8,54.5c26.6,0,53.2-26.6,69.7-49.4l15.2,12.7c-25.4,55.8-46.9,157.2-21.6,247.2c-10.1,5.1-20.3,8.9-33,8.9
		c-87.5,0-106.5-129.3-98.9-232l-15.2,1.3c-15.2,148.3-45.6,232-111.6,232C3089.3,1877.3,3046.2,1850.7,3046.2,1767.1z
		 M3318.8,1442.5c-128-3.8-209.2,107.8-209.2,180c0,38,22.8,59.6,49.4,59.6C3225,1682.1,3241.4,1546.5,3318.8,1442.5z"/>
</g>
</svg>
