<?xml version="1.0" encoding="utf-8"?>
<!-- Generator: Adobe Illustrator 29.1.0, SVG Export Plug-In . SVG Version: 9.03 Build 55587)  -->
<svg version="1.0" id="Layer_1" xmlns="http://www.w3.org/2000/svg" xmlns:xlink="http://www.w3.org/1999/xlink" x="0px" y="0px"
	 viewBox="0 0 5082.6 2293.8" style="enable-background:new 0 0 5082.6 2293.8;" xml:space="preserve">
<g>
	<path d="M1528.3,1205.3c-101.4,0-174.6-20.5-223.4-52.6l24.4-140c50.1,32.1,113,51.4,181.1,51.4c70.6,0,140-29.5,154.1-107.9
		l9-53.9c-30.8,15.4-68.1,24.4-118.1,24.4c-131,0-238.9-70.6-238.9-222.2c0-168.2,132.3-417.3,450.7-417.3H2015l-113,640.8
		C1864.8,1142.4,1694,1205.3,1528.3,1205.3z M1634.9,790.5c20.5,0,41.1-7.7,61.6-20.5l65.5-369.8c-129.7,0-208,149-208,283.8
		C1554,755.9,1584.8,790.5,1634.9,790.5z"/>
	<path d="M2022.7,721.2c0-166.9,134.8-434,457.2-434h241.4L2607,929.2h-172.1l-10.3-59.1c-53.9,48.8-118.1,75.8-193.9,75.8
		C2111.3,945.9,2022.7,863.7,2022.7,721.2z M2328.4,804.7c29.5,0,53.9-14.1,74.5-33.4l65.5-369.8c-136.1,0-208,174.6-208,296.6
		C2260.3,764.8,2283.4,804.7,2328.4,804.7z"/>
	<path d="M2749.6,687.8l93.7-531.6l244-60.4l-33.4,191.3h211.9L3241.4,422h-211.9l-44.9,254.3c-16.7,96.3,32.1,133.6,97.6,133.6
		c34.7,0,61.6-9,96.3-27l-20.5,119.4c-51.4,28.3-113,44.9-186.2,44.9C2799.6,947.2,2720,856,2749.6,687.8z"/>
	<path d="M3238.8,660.8c0-177.2,142.5-393,385.2-393c169.5,0,253,111.7,253,263.3c0,43.7-5.1,82.2-14.1,119.4h-377.5v2.6
		c0,98.9,65.5,136.1,138.7,136.1c65.5,0,122-20.5,197.8-60.4l-27,151.5c-80.9,46.2-160.5,68.1-256.8,68.1
		C3363.4,948.5,3238.8,841.9,3238.8,660.8z M3654.9,538.8c2.6-18,3.9-38.5,3.9-57.8c0-52.7-16.7-100.2-57.8-100.2
		c-43.7,0-87.3,56.5-105.3,158H3654.9z"/>
</g>
<g>
	<path d="M1538.6,2006.1c0-87.3,57.8-150.2,159.2-202.9l201.6-102.7c-24.4,5.1-52.6,9-82.2,9c-138.7,0-233.7-79.6-233.7-193.9
		c0-123.3,86-217,281.2-217h196.5v179.8c0,125.8-47.5,209.3-151.5,264.5l-97.6,51.4c173.4-10.3,292.8,80.9,292.8,205.5
		c0,129.7-128.4,214.5-283.8,214.5C1667,2214.2,1538.6,2132,1538.6,2006.1z M2036.9,2001c0-89.9-84.8-164.4-217-164.4
		c-131,0-217,69.3-217,164.4c0,89.9,86,161.8,217,161.8C1952.1,2162.8,2036.9,2090.9,2036.9,2001z M1999.6,1482.2v-129.7h-141.3
		c-136.1,0-206.7,60.4-206.7,159.2c0,83.5,68.1,151.5,177.2,151.5C1943.1,1663.3,1999.6,1615.7,1999.6,1482.2z"/>
	<path d="M2191,1791.7c0-88.6,53.9-151.5,172.1-201.6l231.1-98.9c0-110.4-59.1-152.8-151.5-152.8c-77,0-142.5,29.5-214.5,84.8v-66.8
		c61.6-46.2,129.7-74.5,218.3-74.5c152.8,0,211.9,86,211.9,204.2v454.6H2381C2264.2,1940.6,2191,1884.1,2191,1791.7z M2594.2,1886.7
		v-340.3l-213.2,92.5c-74.5,32.1-120.7,79.6-120.7,145.1c0,64.2,39.8,102.7,129.7,102.7H2594.2z"/>
	<path d="M2838.2,1749.3v-610l64.2-23.1v182.3h246.6v53.9h-246.6v385.2c0,118.1,59.1,165.7,138.7,165.7c56.5,0,88.6-14.1,133.6-41.1
		v56.5c-50.1,29.5-87.3,41.1-138.7,41.1C2926.8,1959.9,2838.2,1891.8,2838.2,1749.3z"/>
	<path d="M3260.7,1626c0-179.8,111.7-346.7,295.4-346.7c166.9,0,274.8,110.4,274.8,341.6H3330v3.9c0,191.3,125.8,278.7,241.4,278.7
		c77,0,138.7-25.7,215.7-89.9v62.9c-71.9,57.8-133.6,83.5-219.6,83.5C3374.9,1959.9,3260.7,1798.1,3260.7,1626z M3762.8,1566.9
		c-7.7-123.3-68.1-236.3-209.3-236.3c-104,0-199,95-219.6,236.3H3762.8z"/>
</g>
</svg>
