<?xml version="1.0" encoding="utf-8"?>
<!-- Generator: Adobe Illustrator 29.1.0, SVG Export Plug-In . SVG Version: 9.03 Build 55587)  -->
<svg version="1.0" id="Layer_1" xmlns="http://www.w3.org/2000/svg" xmlns:xlink="http://www.w3.org/1999/xlink" x="0px" y="0px"
	 viewBox="0 0 5082.6 2293.8" style="enable-background:new 0 0 5082.6 2293.8;" xml:space="preserve">
<g>
	<path d="M1952.8,1781.1c-102.3,115.8-212.8,204.7-350.1,301.7l-218.2-611.4h-571c-45.8,191.2-53.9,358.2-40.4,517.1H296.4
		c247.8-433.6,536-1023.5,735.3-1511l-72.7-202c94.3-97,212.8-177.8,344.7-253.2C1438.4,507.2,1694.2,1204.7,1952.8,1781.1z
		 M1327.9,1315.2l-234.3-659.9l-204.7,565.6l-32.3,94.3H1327.9z"/>
	<path d="M3193.1,2085.5l-783.8-937.3c-67.3,293.6-64.6,527.9-43.1,840.3h-369c48.5-387.8,150.8-692.2,339.4-926.5
		c-148.1-183.1-239.7-355.5-239.7-482.1c0-126.6,48.5-228.9,196.6-323.2c18.9,158.9,110.4,350.1,293.6,568.3l274.7,325.9
		c32.3-317.8,99.7-627.6,212.8-942.7c37.7,45.8,78.1,121.2,102.3,180.5l307,110.4c-24.2,126.6-70,282.8-115.8,385.1l-258.6-88.9
		c-70,137.4-129.3,296.3-169.7,447.1l393.2,465.9C3306.2,1826.9,3246.9,1988.5,3193.1,2085.5z"/>
	<path d="M3743.9,439.8l492.9,692.2l29.6-91.6c59.3-183.1,53.9-360.9,21.5-506.3h498.3c-183.1,204.7-363.6,449.8-495.6,676
		l420.2,589.8c-61.9,97-126.6,188.5-220.9,280.1L3997,1387.9l-32.3,94.3c-51.2,185.8-53.9,360.9-21.5,506.3h-498.3
		c183.1-204.7,363.6-452.5,492.9-681.4l-417.5-584.5C3582.3,623,3649.6,528.7,3743.9,439.8z"/>
</g>
</svg>
