<?xml version="1.0" encoding="utf-8"?>
<!-- Generator: Adobe Illustrator 29.1.0, SVG Export Plug-In . SVG Version: 9.03 Build 55587)  -->
<svg version="1.0" id="Layer_1" xmlns="http://www.w3.org/2000/svg" xmlns:xlink="http://www.w3.org/1999/xlink" x="0px" y="0px"
	 viewBox="0 0 2014.7 1415.4" style="enable-background:new 0 0 2014.7 1415.4;" xml:space="preserve">
<g>
	<path d="M651.3,654c10.1-74.5,20.9-145.4,32.4-212.9l19.8,30.6c7.9-5,15.5-10.1,23-15.3c7.5,22.4,15.4,44.8,23.8,67.2
		c16,42.7,34.9,88.8,56.8,138.3l78.6-34.3c-21.9-50.5-40.4-95.9-55.4-136.2c-11.5-31-22.2-61.9-31.9-92.7
		c22.9-21.4,43.2-43.9,60.8-67.4c39.1-52.2,68.4-110.5,87.9-174.8l-45.1-13.2l-11.3-41.1c-53,14.8-102,29.5-147.1,44.1
		c1.4-5.7,2.8-11.3,4.2-16.9l-84.4-20c-5.7,23.3-11.2,47.1-16.7,71.3c-17.2,6.7-34.3,13.7-51.2,20.9l31.3,73
		c-22.8,113.3-43.3,236-61.3,368.1L651.3,654z M763.2,230.8c22.5-7.6,46.3-15.2,71.3-22.9c-12.5,25.1-27.2,48.8-44.2,71.1
		c-24.9,32.8-56.3,63.5-94.3,92.1c8-43.4,16.3-85.2,24.9-125.4C735,240.6,749.1,235.6,763.2,230.8z"/>
	<path d="M1055.2,270.1L980.9,243c-20,54.3-37.1,117-51.1,188c-14.1,71-24.4,141.6-31.1,211.6l43.8,4l27.7,19.6
		c15.2-21.9,29.7-43.6,43.3-65.1c13.6-21.4,24.7-41.2,33.2-59.3L994.7,517c3.8-23.2,8-46.4,12.6-69.5
		C1020.7,380.2,1036.6,321.1,1055.2,270.1z"/>
	<path d="M1003.8,238c9.3-5.2,18.4-10.1,27.3-14.8c3.7,9.1,7.2,18.1,10.6,27l67.2-25.7c-4.1-10.9-8.3-21.9-12.8-33
		c11-4.9,21.7-9.4,32.1-13.5l-27.2-67.2c-11.3,4.7-22.6,9.6-33.9,14.7c-4.3-9.1-8.7-18.3-13.3-27.5l-64.3,31.5
		c4.4,9.2,8.7,18.3,12.9,27.4c-11.5,5.9-22.9,12.1-34.3,18.4L1003.8,238z"/>
	<path d="M1304,377.5c18.1-30.8,36.4-63.5,55-98.1l-62.9-34.3c-7.7,14-15.2,27.8-22.8,41.2c-9-6.3-19.9-12.8-32.6-19.4
		c-21.7-11.2-45.6-21.6-71.8-31.1l-11.2,31.6l-40.3-16.6c-15.3,36.7-27.3,82.6-36.1,137.6c-8.8,55-13.7,109.5-14.7,163.4l33.6,0.6
		c-28.3,37.1-58.3,74.1-90.1,110.9l21.4,18.6l-19.3,25.7c28.6,21.9,56.8,41.7,84.7,59.3c27.9,17.6,58.7,35.3,92.6,52.9l15.3-30
		l31.9,6.4c11.9-62,28-131.5,48.3-208.8c20.3-77.2,39.9-142.5,59-195.9L1304,377.5z M1158.5,403.5c5.2-32.8,11.5-61.7,19.1-86.7
		c8.9,3.7,17.5,7.6,25.6,11.6c15.7,7.9,27,14.7,34,20.4c-27.8,46.7-54.6,88.8-80.5,126.1c-2.7,3.9-5.4,7.7-8.1,11.6
		C1150.9,458.8,1154.2,431.1,1158.5,403.5z M1215.7,567.5c-15.3,58.4-28.5,112.6-39.5,162.7c-13.5-7.8-26.5-15.5-38.8-23.3
		c-14.4-9.1-29.3-18.9-44.7-29.6c44.4-53.1,85.5-106.9,123.3-161.3c7.7-11,15.4-22.4,23.2-34.2
		C1231.5,508.6,1223.7,537.2,1215.7,567.5z"/>
	<path d="M1613.6,485.7c9.5-57.9,25-110.2,46.5-156.9l-26.4-12.1c8.3-9.4,16.6-18.5,25-27.3l-52.9-50
		c-48.1,51-95.4,111.4-141.9,181.2c-6.8,10.3-13.5,20.6-20.1,30.9c3.6-18.1,7.6-36.5,11.9-55.2c21.4-93.7,47.9-181.5,79.4-263.4
		l-39-15l-21.1-27.2c-19.1,14.3-36.7,29.4-52.9,45.4c-16.2,16-33.6,34.7-52.2,56.1l46.8,40.6c-14.2,47-26.9,95.7-38.2,145.9
		c-21.9,97.7-35.7,186.6-41.5,266.7l38.5,2.8l33,15.8c2.1-4.3,4.1-8.6,6.2-12.9l0.9,0.1c0.1-0.8,0.1-1.5,0.2-2.3
		c31.2-63.9,67.3-126.5,108.1-187.9c9.9-14.8,19.8-29.2,29.8-43.2c-4.4,18.3-8.1,37.1-11.2,56.4c-10.3,64.1-13.7,122.6-10.4,175.5
		l39.1-2.3l22.4,17.4c30.5-37.6,56.7-80.3,78.6-128l-62.1-28.3C1611.2,500.9,1612.3,493.4,1613.6,485.7z"/>
	<path d="M1813.2,317.6c18.4,10.2,37.9,20.6,58.5,31.2l32.9-64.3c-27.9-14.8-52.7-28.5-74.6-40.8c9.3-38.7,18.9-74.9,28.8-108.6
		l-75.8-22.9c-8.3,27.6-16.3,56.8-24.1,87.7c-7.4-5.1-14.6-10.2-21.7-15.5l-42.9,58.6c14.8,10.8,30.4,21.5,46.8,32
		c-7,31.3-13.7,64-20.3,98.2c-19.1,99.1-33.8,189.9-44.3,272.4l51.3,6.5l26.6,20.6c38.6-50.5,66.5-93.9,83.6-130.1l-61.6-30.1
		c6.6-39.7,14.1-80.9,22.3-123.6C1803.5,364.3,1808.3,340.6,1813.2,317.6z"/>
	<path d="M345.3,1158.8c-5,3.4-10.1,7-15.1,10.6c-9.2-61.2-19.9-120.6-32.1-178.2C279.8,904.6,257,818.2,229.9,732l-43.1,13.4
		l-40.6-10.5c-12.9,49.1-22.9,97.9-30,146.6l68.7,10c10.4,39.8,19.9,79.4,28.5,118.7c18.1,82.9,32.6,170.4,43.6,262.4l42.9-5
		l19.3,22.2c24.8-21.9,49.2-41.2,73.3-57.9c24.1-16.7,53-35,86.9-55l-42.9-74.4C403.6,1120.9,373.2,1139.7,345.3,1158.8z"/>
	<path d="M609.8,1163.1c-9.1,9.4-19.2,19.4-30.1,29.9c-3.3-14.9-6.8-29.9-10.4-45c17.5-23.1,34.3-47.2,50.2-72.5
		c19.1-30.3,35.5-59.5,49.3-87.6L635,971.7l18.8-35.3c-51-26.2-116.8-51.5-197.3-75.8l-8.8,28.1L415,899.3
		c20,59.6,39,122,56.8,187.3c17.9,65.3,32.8,128.7,44.7,190.2l48.2-9.8l19,21.3c59.6-53.4,106-102.2,139.4-146.6l-58.6-42.9
		C648.3,1120.7,630.1,1142.1,609.8,1163.1z M546,1057.7c-9.5-34.3-19.2-68.1-29.3-101.2c27.4,9.9,51.5,19.6,72.2,29.1
		C576.3,1009.9,562,1033.9,546,1057.7z"/>
	<path d="M983.4,987.2c-6.8-29.7-13.8-58.9-21.2-87.7c16.6,8.2,33.5,16.6,50.6,25.5l32.9-64.3c-36.9-19.3-73.2-37.2-108.8-53.5
		c-9.3-31.9-19-63.1-29.2-93.8l-75.8,24.3c3.1,9.4,6.1,18.8,9,28.3c-49-19.7-99.4-38.2-151.3-55.5l-10.4,31.1l-34.7,11.1
		c10,30.7,19.6,61.9,28.7,93.7l-15.2,57.1c11.5,3.2,22.7,6.4,33.6,9.6c8.4,31.8,16.4,64.1,24,97c20.7,89.6,38,179.2,51.8,268.8
		l78.6-11.4c-13.8-91-31.3-182.8-52.5-275.2c-3.8-16.5-7.7-32.9-11.7-49.2c16.3,6.3,32.5,13.2,48.5,20.6l30-65.8
		c-27.6-12.4-56.2-23.7-85.8-34c-4.8-1.7-9.8-3.3-14.7-5c-4.9-17.8-10-35.4-15.2-52.9c31.8,11.6,63,23.9,93.6,36.8
		c9.6,4.1,19.3,8.3,29.1,12.6c13.6,48.6,26.3,98.5,38.1,149.7c21.4,93.4,37.9,183,49.3,268.8l44.7-5.7l31.8,12.8
		c19.1-45.8,33.6-94.4,43.6-145.8l-63.7-13C1003.1,1078.1,993.8,1033.1,983.4,987.2z"/>
</g>
</svg>
