<?xml version="1.0" encoding="utf-8"?>
<!-- Generator: Adobe Illustrator 29.1.0, SVG Export Plug-In . SVG Version: 9.03 Build 55587)  -->
<svg version="1.0" id="Layer_1" xmlns="http://www.w3.org/2000/svg" xmlns:xlink="http://www.w3.org/1999/xlink" x="0px" y="0px"
	 viewBox="0 0 4160 1875.9" style="enable-background:new 0 0 4160 1875.9;" xml:space="preserve">
<g>
	<path d="M838.3,825.2H680.2c-8.4,40.7-12,82.7-12,130.6c0,71.9,18,149.8,58.7,231.2l-33.5,147.4H466.9
		c2.4-61.1,10.8-154.6,22.8-207.3h121c-3.6-25.2-6-52.7-6-81.5c0-75.5,16.8-153.4,44.3-220.5H480.1
		c37.1-107.8,100.6-221.7,161.8-297.1l46.7,88.7c53.9-10.8,92.3-15.6,154.6-15.6c131.8,0,266,80.3,249.2,269.6l-40.7,463.7h-35.9
		l-27.6-373.8C980.9,855.2,941.4,825.2,838.3,825.2z"/>
	<path d="M1153.4,795.3c28.8-74.3,80.3-161.8,124.6-220.5c130.6,58.7,167.7,135.4,149.8,278l-62.3,481.7h-35.9l-14.4-339.1
		C1311.6,893.5,1292.4,852.8,1153.4,795.3z"/>
	<path d="M1681.8,905.5c-124.6-50.3-184.5-115-184.5-195.3c0-69.5,38.3-128.2,94.7-163c27.6,62.3,86.3,141.4,148.6,198.9
		c37.1-95.9,104.2-151,184.5-151c101.8,0,186.9,105.4,186.9,322.3c0,136.6-24,268.4-59.9,417h-249.2c6-71.9,16.8-137.8,31.2-207.3
		h207.3c6-32.4,9.6-71.9,9.6-107.8c0-146.2-59.9-208.5-170.1-208.5c-46.7,0-99.4,13.2-135.4,38.3c-35.9,97.1-63.5,249.2-92.3,485.3
		h-145C1545.2,1181.1,1601.6,1039.7,1681.8,905.5z"/>
	<path d="M2163.5,795.3c28.8-74.3,80.3-161.8,124.6-220.5c130.6,58.7,167.7,135.4,149.8,278l-62.3,481.7h-35.9l-14.4-339.1
		C2321.6,893.5,2302.5,852.8,2163.5,795.3z"/>
	<path d="M2679.9,1117.6c224.1-136.6,278-192.9,278-243.2c0-34.7-25.2-49.1-85.1-49.1h-363c15.6-104.2,53.9-201.3,109-298.3
		c-76.7-16.8-146.2-62.3-146.2-136.6c0-63.5,40.7-127,91.1-168.9c32.3,70.7,88.7,110.2,162.9,133c-40.7,85.1-70.7,174.9-88.7,256.4
		c46.7-6,94.7-9.6,146.2-9.6c140.2,0,232.4,70.7,232.4,207.3c0,113.8-59.9,278-227.7,561.9
		C2748.2,1300.9,2708.7,1207.4,2679.9,1117.6z"/>
	<path d="M3158,1055.3c0-59.9,14.4-130.6,37.1-174.9c-69.5-26.4-129.4-75.5-129.4-154.6c0-70.7,47.9-139,100.6-178.5
		c24,49.1,71.9,87.5,139,123.4c-49.1,80.3-83.9,173.7-83.9,248c0,77.9,30,135.4,82.7,173.7c37.1-222.9,81.5-390.6,139-550
		c18,21.6,34.7,52.7,50.3,83.9l128.2,38.3c-9.6,63.5-31.2,139-52.7,189.3l-110.2-27.6c-40.7,69.5-81.5,165.3-118.6,286.4
		c40.7,19.2,89.9,28.8,145,28.8c109,0,189.3-34.7,238.4-70.7c7.2-115-8.4-285.2-45.5-431.3c41.9-25.2,113.8-50.3,177.3-62.3
		c21.6,263.6-74.3,772.8-418.2,772.8C3262.2,1350,3158,1220.6,3158,1055.3z"/>
</g>
</svg>
