<?xml version="1.0" encoding="UTF-8"?>
<svg id="Layer_1" xmlns="http://www.w3.org/2000/svg" version="1.1" viewBox="0 0 1492.4 1307.1">
  <!-- Generator: Adobe Illustrator 30.2.1, SVG Export Plug-In . SVG Version: 2.1.1 Build 1)  -->
  <defs>
    <style>
      .st0 {
        fill: #1d1d1b;
      }

      .st1 {
        fill: #f8cf27;
      }
    </style>
  </defs>
  <polygon class="st1" points="746.3 58.7 62.2 1246.1 1413.7 1246.1 746.3 58.7"/>
  <path d="M1483.8,1285.8c-6.6,10.4-20.7,21.2-34.8,21.2H43.8c-16.4,0-31.2-14.3-36.7-24.6-8.2-15.3-10.1-34.1-1.1-49.6L545.8,295.5,703.9,21.9C712.4,7.1,729.8.4,744.4,0c16-.4,34.5,5.9,43.1,20.8l93.3,160.9,225.2,390.5,377.9,655.4c10.6,18.3,11.9,39.2-.2,58.1h0ZM818.9,1204.8l496.1-.2,37.3.2-89.5-154.8L746,153.4l-308.5,536.4-297.2,515,59.6-.2,579.1.2h40Z"/>
  <path d="M772.6,841.4l-37.6-54-38.6,100.2,55.5,90.8c7.7,12.6,6.7,30.2,7.5,44.8l6.3,114.9c1.1,19.5-16.8,32.9-33,32.7-20.1-.3-32.2-15.7-33-35.5l-2-50.1-5.1-76.1-58.1-87.4-8.1,98.9-63.5,128.8c-6.9,18.3-28,26.4-45.2,18.5-18.3-8.5-23.7-28.9-14.6-47.3l45.5-92.4c4.3-8.8,11.9-19.3,12.3-29.1l2.1-47,3.5-84.8c.3-6.6,2.4-16.3,4.8-22.7l47.3-128-80.2-32.5c-12.6-5.1-17-17.7-13.9-30.2l20.1-52.7-6.8-10.6c26.5-24.9,15.3-16.6,28.4-42.6,6.8-13.4,20.7-19.4,35.2-12.8l47.2-41.9-21.9-28.1,36.1-30.8,56.4,73.1-34.6,29.4-20.7-26.5-48.3,43.6c-1,3.5-2,9.3-3.3,12.8l-30.2,80.5,82.3,31.6,65.4,28.5c5.2,2.3,15,6,18.3,10.7l53.2,75.5,58.2-21.7-11.9-20.3c-1-1.6-9.3.2-10.2-1.5-1-2-2.1-5-3.5-9l34.4-21.3c6,5.1,7.3,11.2,1.7,17.9l14.2,24.7c13-2.2,22.2,2.5,27,11.5,5.1,9.5,5.2,20.7-3.4,30.3,15.8,31.5,23,28.2,26.2,67.6-7.2-3.9-20.4-7.2-24.8-14.4l-24.6-40.8-88.2,33.1c-7.8,2.9-19.2-1.6-24.1-8.5h0Z"/>
  <path d="M803.1,562.4c16.1,16.8,18.4,43.4,11.6,66.7,4.7,5.2,8.4,9.4,11.5,15.1,1.5,2.7-.5,6.1-3.5,6-5.2-.1-10-1.3-15.2-3.5l-120.7-51c-3.9-1.7-5.7-5.6-5.3-9.7.3-3.2,7.1-6.4,11.8-7.2,10.5-19.7,30.8-39.2,55.1-37.3,12.9,1,15.4,19.5,18.2,31.2.7,3,5,2.8,5.4-.3,1.5-10.9-3.4-21.1-8-32.3,8.6-1.3,22.5,2.7,27.2,12.7,5.2,10.9,4.1,23.2,4.6,36,.1,2.7,3.8,3.4,4.9.9,3.5-7.6-.5-16.3,2.2-27.3h0Z"/>
  <path d="M797.5,651.6c-9.2,34-47.3,50.4-79,37.5-31.8-13-46.2-50.4-28.9-83.2l107.9,45.8h0Z"/>
  <path d="M1002.1,853.3l-50,19.1c9.2-12.2,19.1-22.3,31.2-35.2l18.8,16.1Z"/>
  <path d="M895.5,925.3c-6.5-6.1-8.9-10.7-12-19.5l42-9-30,28.5h0Z"/>
  <polygon points="962.8 823.7 946.9 854.3 946.6 820.1 962.8 823.7"/>
  <path d="M904.6,875.7c-10.3,2.8-15.8,3.6-27.1,4.8l2-16c10.7,3.9,15.1,5.6,25,11.3Z"/>
  <path class="st0" d="M946,894.6h81.2l87.8,238.4h-84.9l-12.9-35.4h-85.2l-12.5,35.4h-57.6l84.1-238.3h0ZM1000.6,1052.5l-26.9-72.7-25.8,72.7h52.8Z"/>
  <polygon points="681.5 463.9 691.1 454.1 703.8 470.8 692 479.8 681.5 463.9"/>
</svg>