<?xml version="1.0" encoding="utf-8"?>
<!-- Generator: Adobe Illustrator 29.1.0, SVG Export Plug-In . SVG Version: 9.03 Build 55587)  -->
<svg version="1.0" id="Layer_1" xmlns="http://www.w3.org/2000/svg" xmlns:xlink="http://www.w3.org/1999/xlink" x="0px" y="0px"
	 viewBox="0 0 800 800" style="enable-background:new 0 0 800 800;" xml:space="preserve">
<style type="text/css">
	.st0{fill:#FFFFFF;}
</style>
<path class="st0" d="M545.8,108.3c80.4,0.2,145.6,65.4,145.8,145.8v291.7c-0.2,80.4-65.4,145.6-145.8,145.8H254.2
	c-80.4-0.2-145.6-65.4-145.8-145.8V254.2c0.2-80.4,65.4-145.6,145.8-145.8h291.7 M545.8,50H254.2C141.9,50,50,141.9,50,254.2v291.7
	c0,112.3,91.9,204.2,204.2,204.2h291.7c112.3,0,204.2-91.9,204.2-204.2V254.2C750.1,141.9,658.2,50,545.9,50H545.8L545.8,50z"/>
<path class="st0" d="M589.6,254.2c-24.2,0-43.8-19.6-43.8-43.8s19.6-43.8,43.8-43.8s43.8,19.6,43.8,43.8l0,0
	c0,24.1-19.5,43.7-43.6,43.8H589.6z"/>
<path class="st0" d="M400,283.3c64.4,0,116.7,52.2,116.7,116.7S464.5,516.7,400,516.7S283.3,464.5,283.3,400S335.6,283.4,400,283.3
	 M400,225c-96.6,0-175,78.4-175,175s78.4,175,175,175s175-78.4,175-175S496.6,225,400,225z"/>
</svg>
