<?xml version="1.0" encoding="UTF-8"?><svg id="Layer_1" xmlns="http://www.w3.org/2000/svg" viewBox="0 0 700.1 700.1"><defs><style>.cls-1{fill:blue;}</style></defs><path class="cls-1" d="M495.8,58.3c80.4.2,145.6,65.4,145.8,145.8v291.7c-.2,80.4-65.4,145.6-145.8,145.8H204.2c-80.4-.2-145.6-65.4-145.8-145.8V204.2c.2-80.4,65.4-145.6,145.8-145.8h291.7M495.8,0H204.2C91.9,0,0,91.9,0,204.2v291.7c0,112.3,91.9,204.2,204.2,204.2h291.7c112.3,0,204.2-91.9,204.2-204.2V204.2C700.1,91.9,608.2,0,495.9,0h-.1Z"/><path class="cls-1" d="M539.6,204.2c-24.2,0-43.8-19.6-43.8-43.8s19.6-43.8,43.8-43.8,43.8,19.6,43.8,43.8h0c0,24.1-19.5,43.7-43.6,43.8h-.2Z"/><path class="cls-1" d="M350,233.3c64.4,0,116.7,52.2,116.7,116.7s-52.2,116.7-116.7,116.7-116.7-52.2-116.7-116.7,52.3-116.6,116.7-116.7M350,175c-96.6,0-175,78.4-175,175s78.4,175,175,175,175-78.4,175-175-78.4-175-175-175Z"/></svg>