<?xml version="1.0" encoding="UTF-8"?>
<svg id="Layer_1" xmlns="http://www.w3.org/2000/svg" version="1.1" viewBox="0 0 1920 1080">
  <!-- Generator: Adobe Illustrator 29.1.0, SVG Export Plug-In . SVG Version: 2.1.0 Build 142)  -->
  <defs>
    <style>
      .st0 {
        fill: #1e1e1e;
      }
    </style>
  </defs>
  <path class="st0" d="M510.2,263.4c-98.3,0-182.6,165.8-247.2,317.5l-15.5-5.6c46.4-132,88.5-203.7,88.5-282.4s-70.2-185.4-157.3-219.1l-12.6,16.9c82.9,161.5,49.2,314.7-50.6,479l21.1,15.5c11.2-12.6,29.5-23.9,49.2-23.9s42.1,21.1,42.1,57.6c0,80.1-87.1,134.9-87.1,229s43.5,113.8,95.5,113.8,52-8.4,66-18.3c-14-87.1,7-177,50.6-258.5l-21.1-12.6c-14,21.1-35.1,37.9-57.6,37.9s-28.1-12.6-28.1-37.9c0-59,101.1-178.4,160.1-178.4s42.1,16.9,42.1,42.1c0,49.2-53.4,133.5-53.4,257.1s46.4,168.6,105.4,168.6,30.9-2.8,45-9.8c-29.5-99.7,2.8-212.1,42.1-273.9l-18.3-16.9c-16.9,19.7-47.8,42.1-81.5,42.1s-43.5-16.9-43.5-42.1c0-81.5,144.7-143.3,144.7-299.2s-32.3-98.3-78.7-98.3Z"/>
  <path class="st0" d="M963.9,415.1c0-91.3-54.8-153.1-137.7-153.1-132,0-130.6,148.9-238.8,321.7l19.7,15.5c7-7,18.3-15.5,30.9-15.5,25.3,0,39.3,26.7,39.3,61.8,0,63.2-45,112.4-45,186.8s43.5,130.6,120.8,130.6,184-123.6,210.7-279.5l-22.5-11.2c-29.5,43.5-81.5,82.9-139.1,82.9s-88.5-29.5-98.3-84.3c163-42.1,259.9-126.4,259.9-255.7ZM701.2,642.7v-5.6c0-96.9,40.7-164.4,87.1-164.4s53.4,23.9,53.4,56.2c0,52-60.4,91.3-140.5,113.8Z"/>
  <path class="st0" d="M1040,75.2l-14,15.5c82.9,161.5,49.2,314.7-50.6,479l21.1,15.5c11.2-12.6,29.5-23.9,49.2-23.9s42.1,21.1,42.1,57.6c0,80.1-87.1,134.9-87.1,229s43.5,113.8,95.5,113.8,43.5-8.4,56.2-18.3c-14.1-89.9,8.4-182.6,54.8-266.9l-22.5-11.2c-11.2,21.1-28.1,37.9-46.4,37.9s-32.3-15.5-32.3-52c0-106.8,102.5-186.8,102.5-304.8s-73-214.9-168.6-271.1Z"/>
  <path class="st0" d="M1267.1,75.2l-14,15.5c82.9,161.5,49.2,314.7-50.6,479l21.1,15.5c11.2-12.6,29.5-23.9,49.2-23.9s42.1,21.1,42.1,57.6c0,80.1-87.1,134.9-87.1,229s43.5,113.8,95.5,113.8,43.5-8.4,56.2-18.3c-14.1-89.9,8.4-182.6,54.8-266.9l-22.5-11.2c-11.2,21.1-28.1,37.9-46.4,37.9s-32.3-15.5-32.3-52c0-106.8,102.5-186.8,102.5-304.8s-73-214.9-168.6-271.1Z"/>
  <path class="st0" d="M1786.7,642.7c-11.2,12.6-23.9,21.1-36.5,21.1s-33.7-15.5-33.7-40.7c0-49.2,61.8-134.9,61.8-223.4s-45-137.7-122.2-137.7c-120.8,0-119.4,148.9-223.4,321.7l19.7,15.5c7-7,18.3-15.5,30.9-15.5,25.3,0,39.3,26.7,39.3,61.8,0,64.6-45,111-45,188.2s40.7,129.2,111,129.2c139.1,0,163-199.5,216.3-307.6l-18.3-12.6ZM1619.6,745.3c-43.5,0-73-42.1-73-123.6s29.5-144.7,73-144.7,73,64.6,73,144.7-28.1,123.6-73,123.6Z"/>
</svg>